<svg id="图层_1" data-name="图层 1" xmlns="http://www.w3.org/2000/svg" xmlns:xlink="http://www.w3.org/1999/xlink"
     viewBox="0 0 70.87 70.87">
    <defs>
        <style>
            .cls-1,.cls-10,.cls-11,.cls-2,.cls-3,.cls-4,.cls-5,.cls-6,.cls-7,.cls-8,.cls-9{stroke:#f2f2f2;stroke-miterlimit:10;stroke-width:0.25px;}.cls-1{fill:url(#未命名的渐变_159);}.cls-2{fill:url(#未命名的渐变_159-2);}.cls-3{fill:url(#未命名的渐变_159-3);}.cls-4{fill:url(#未命名的渐变_159-4);}.cls-5{fill:url(#未命名的渐变_159-5);}.cls-6{fill:url(#未命名的渐变_159-6);}.cls-7{fill:url(#未命名的渐变_159-7);}.cls-8{fill:url(#未命名的渐变_159-8);}.cls-9{fill:url(#未命名的渐变_159-9);}.cls-10{fill:url(#未命名的渐变_159-10);}.cls-11{fill:url(#未命名的渐变_159-11);}
        </style>
        <linearGradient id="未命名的渐变_159" x1="31.63" y1="3.57" x2="74.63" y2="42.95" gradientUnits="userSpaceOnUse">
            <stop offset="0" stop-color="#9ac7d5"/>
            <stop offset="0.5" stop-color="#d1b9c9"/>
            <stop offset="0.87" stop-color="#f29282"/>
            <stop offset="1" stop-color="#ff8367"/>
        </linearGradient>
        <linearGradient id="未命名的渐变_159-2" x1="25.83" y1="9.91" x2="68.83" y2="49.28"
                        xlink:href="#未命名的渐变_159"/>
        <linearGradient id="未命名的渐变_159-3" x1="13.14" y1="23.75" x2="56.15" y2="63.14"
                        xlink:href="#未命名的渐变_159"/>
        <linearGradient id="未命名的渐变_159-4" x1="10.61" y1="26.53" x2="53.61" y2="65.9"
                        xlink:href="#未命名的渐变_159"/>
        <linearGradient id="未命名的渐变_159-5" x1="17.01" y1="19.54" x2="60.01" y2="58.91"
                        xlink:href="#未命名的渐变_159"/>
        <linearGradient id="未命名的渐变_159-6" x1="36.16" y1="45.25" x2="36.4" y2="45.48"
                        xlink:href="#未命名的渐变_159"/>
        <linearGradient id="未命名的渐变_159-7" x1="21.27" y1="32.72" x2="48.99" y2="58.1"
                        xlink:href="#未命名的渐变_159"/>
        <linearGradient id="未命名的渐变_159-8" x1="42.18" y1="56.55" x2="42.22" y2="56.59"
                        xlink:href="#未命名的渐变_159"/>
        <linearGradient id="未命名的渐变_159-9" x1="42.59" y1="62.37" x2="44.12" y2="63.78"
                        xlink:href="#未命名的渐变_159"/>
        <linearGradient id="未命名的渐变_159-10" x1="18.76" y1="28.13" x2="52.99" y2="59.47"
                        xlink:href="#未命名的渐变_159"/>
        <linearGradient id="未命名的渐变_159-11" x1="42.76" y1="62.53" x2="44" y2="63.66"
                        xlink:href="#未命名的渐变_159"/>
    </defs>
    <title>P&amp;amp;KU</title>
    <path class="cls-1"
          d="M37.78,7.63c.39,1.22-1,2.31-2.3,2.31s-2.66-1.08-2.31-2.31c.31-1.07,1.23-4,2.3-4.06S37.44,6.56,37.78,7.63Z"/>
    <path class="cls-2"
          d="M44.51,16.21l-.61-.54a13.73,13.73,0,0,0-9.22-3.33h0a12.36,12.36,0,0,0-8.18,3.17,4.14,4.14,0,0,0-1.56,3,2.84,2.84,0,0,0,.91,2.24,2.5,2.5,0,0,0,1.71.79A4.45,4.45,0,0,0,30.19,20l.65-.58a14.56,14.56,0,0,1,4.86-2.92,11.62,11.62,0,0,1,7.58.34l.62.22c.62.24.86.32,1,0S44.9,16.54,44.51,16.21Z"/>
    <path class="cls-3"
          d="M38.56,43.23a4.57,4.57,0,0,1-.13.88,3.06,3.06,0,0,1-1.87,2h0V48.5h-2V46.15a3.17,3.17,0,0,1-1-.55l-.18-.16a3.06,3.06,0,0,1-.94-2.21,3,3,0,0,1,.48-1.64,2.47,2.47,0,0,1,.53-.63,3,3,0,0,1,2.06-.8,3.06,3.06,0,0,1,2.06.79c-.11.25-.23.49-.36.73l-.07-.08a2.33,2.33,0,0,0-1.63-.67A2.3,2.3,0,0,0,34,45l0,0a2.49,2.49,0,0,0,.93.44l.3.06v2.19h.49v-2.2l.29-.08.22-.07.21-.08.19-.11,0,0a2.93,2.93,0,0,0,.36-.28A6.85,6.85,0,0,0,38.55,43,1.77,1.77,0,0,1,38.56,43.23Z"/>
    <path class="cls-4"
          d="M36.06,58.25l-.85,0a14.55,14.55,0,0,1-6.59-1.37A13.8,13.8,0,0,1,22,50.27a15.52,15.52,0,0,1-1.39-7.47A17.13,17.13,0,0,1,21,40.17a26,26,0,0,1,1.52-4.72.59.59,0,0,0,0-.08.36.36,0,0,1,0-.09,1,1,0,0,1,.07-.15,0,0,0,0,1,0,0,6.36,6.36,0,0,1,.3-.58c.05-.09.1-.19.16-.28L23.3,34l.18-.25.18-.24a2.11,2.11,0,0,1,.19-.23c.06-.08.13-.15.19-.22l.2-.21c.07-.07.13-.14.2-.2l.21-.19.21-.17h0l.21-.16.19-.14.06,0,.19-.13.22-.13s0,0,0,0l.19-.12.05,0,.2-.11h0l.22-.12.24-.1.22-.1.42-.15.15-.05.66-.19.18,0a9.29,9.29,0,0,1,1.12-.18,2.89,2.89,0,0,1,2.12.51l-.47.78a42.24,42.24,0,0,0-3.94,7.61,11.62,11.62,0,0,0-.62,6,6.25,6.25,0,0,0,.88,2.17,4.34,4.34,0,0,0,.56.72,7,7,0,0,0,4.39,2.09Z"/>
    <path class="cls-5"
          d="M50.24,42.45a16.23,16.23,0,0,1-3.07,9.68l0,0a15.76,15.76,0,0,1-4.92,4.39h0L42,56l-.24-.51-1,.48L40,54.56,39.8,54l1.81-.84-.48-1L39.32,53,37.89,50a13.76,13.76,0,0,0,6-11.56,14,14,0,0,0-1.25-5.78,14.27,14.27,0,0,0-5.78-6.37A16.57,16.57,0,0,1,50.24,42.45Z"/>
    <path class="cls-6" d="M36.5,45.3l-.21.09-.22.06.22-.07Z"/>
    <path class="cls-7"
          d="M43.5,62a3.71,3.71,0,0,1-.2,2.2v0a2.61,2.61,0,0,1-1.13,1,2.9,2.9,0,0,1-.54.19,2.64,2.64,0,0,1-.55.06A2.58,2.58,0,0,1,38.73,64l-1.37-2.92-1.3-2.84-3.72-7.94-1-2.1a9.74,9.74,0,0,1-1.72.15A10.51,10.51,0,0,1,28,48.22a4.34,4.34,0,0,1-.56-.72,6.25,6.25,0,0,1-.88-2.17,5.64,5.64,0,0,0,1.22.47c-1.31-1.66-1.19-5.63,2.88-8.45a4.65,4.65,0,0,0,.59-.49,4.85,4.85,0,0,0,1.05-1.58c.65-1.59.44-3.41-.71-4.3a2.89,2.89,0,0,0-2.12-.51,9.29,9.29,0,0,0-1.12.18l-.18,0-.66.19-.15.05-.42.15-.22.1-.24.1-.22.12h0l-.2.11-.05,0-.19.12s0,0,0,0l-.22.13-.19.13-.06,0-.19.14-.21.16h0l-.21.17-.21.19c-.07.06-.13.13-.2.2L24,33c-.06.07-.13.14-.19.22a2.11,2.11,0,0,0-.19.23l-.18.24L23.3,34l-.17.26c-.06.09-.11.19-.16.28a6.36,6.36,0,0,0-.3.58,0,0,0,0,0,0,0,1,1,0,0,0-.07.15.36.36,0,0,0,0,.09.59.59,0,0,1,0,.08A26,26,0,0,0,21,40.17a17.13,17.13,0,0,0-.36,2.63A9.95,9.95,0,0,1,26,29.09a10.1,10.1,0,0,1,11.5,3.11,9.87,9.87,0,0,1,2.17,6.19,9,9,0,0,1-.06,1A9.72,9.72,0,0,1,38.55,43a6.85,6.85,0,0,1-1.47,1.89,2.93,2.93,0,0,1-.36.28l0,0-.19.11-.21.08-.22.07-.29.08v2.2h-.49V45.54l-.3-.06a2.49,2.49,0,0,1-.93-.44,9.39,9.39,0,0,0,3.13-3.36c.13-.24.25-.48.36-.73s.09-.25.13-.37a6.78,6.78,0,0,0,.31-2,9.18,9.18,0,0,0-2.25-5.85,3.59,3.59,0,0,0-1-.84A6.75,6.75,0,0,1,35.11,33a9.48,9.48,0,0,1-.61,6.22A10.22,10.22,0,0,1,33.43,41a2.47,2.47,0,0,0-.53.63l-.2.21c-2.92,3.05-1.1,4.12.66,3.64l.18.16a3.17,3.17,0,0,0,1,.55V48.5h2V47.07L37.89,50,39.32,53l1.81-.84.48,1L39.8,54l.24.52L40.72,56l1-.48L42,56l.23.5h0l-.07,0-.14.07L41.2,57l1,2.09c.9-.36,1.09-.52,1.84-.84l.6,1.35-1.81.84.62,1.34A1.19,1.19,0,0,1,43.5,62Z"/>
    <path class="cls-8" d="M42.24,56.56l-.08,0,.07,0Z"/>
    <path class="cls-9" d="M43.3,64.22a3.71,3.71,0,0,0,.2-2.2A2.53,2.53,0,0,1,43.3,64.22Z"/>
    <path class="cls-10"
          d="M58.78,44.94a18.94,18.94,0,0,1-.11,2.12,22.85,22.85,0,0,1-9.44,15.79A23.18,23.18,0,0,1,42,66.39l-.07,0h0a23.4,23.4,0,0,1-29.7-20.2c-.07-.71-.1-1.43-.1-2.15,0-.31,0-.62,0-.93a23,23,0,0,1,4-12,.66.66,0,0,1,.83-.23.62.62,0,0,1,.26.85l0,.05a23.49,23.49,0,0,0-1.88,5.08,22.58,22.58,0,0,0-.78,5.6,19.1,19.1,0,0,0,19.14,19,23.38,23.38,0,0,0,3.77-.37L38.73,64a2.58,2.58,0,0,0,2.35,1.5,2.64,2.64,0,0,0,.55-.06,2.9,2.9,0,0,0,.54-.19,2.61,2.61,0,0,0,1.13-1v0a2.53,2.53,0,0,0,.2-2.2,1.19,1.19,0,0,0-.08-.2l-.62-1.34,1.81-.84L44,58.29a36.14,36.14,0,0,0,3.84-3.09,20.74,20.74,0,0,0,2.62-3.64,17.92,17.92,0,0,0-1.2-18.86,30.45,30.45,0,0,0-6.61-6.89c-.17-.13-.34-.26-.51-.37a6.08,6.08,0,0,0-2.37-1,4.58,4.58,0,0,0-1.61,0c-1.87.37-3.76,1.94-5.39,4.45a10.11,10.11,0,0,0-6.76.17c.63-.95,1.27-1.87,1.89-2.76.51-.71,1.12-1.58,1.84-2.48-.58.11-1.16.24-1.74.37s-1.28.3-1.91.49A16.53,16.53,0,0,0,23,26a.65.65,0,0,1-.67-1.11,22.84,22.84,0,0,1,3.65-2A23.15,23.15,0,0,1,32.44,21a9.54,9.54,0,0,1,6.19-2.61c3.56,0,6.68,1.48,9.54,4.54a51.26,51.26,0,0,1,4.07,4.9C55.86,32.82,58.76,38.72,58.78,44.94Z"/>
    <path class="cls-11" d="M43.3,64.22a3.71,3.71,0,0,0,.2-2.2A2.53,2.53,0,0,1,43.3,64.22Z"/>
</svg>